<svg width="62" height="77" viewBox="0 0 62 77" fill="none" xmlns="http://www.w3.org/2000/svg">
<g clip-path="url(#clip0_22_51)">
<path d="M4.5479 0.743955C4.60359 1.09734 5.01197 4.05458 5.43892 7.29081C5.88442 10.527 6.27424 13.2239 6.32993 13.2797C6.36706 13.3355 6.57125 11.457 6.75688 9.13212L7.09101 4.87294L5.77305 2.47366C4.80778 0.743955 4.47365 0.278978 4.5479 0.743955Z" fill="black"/>
<path d="M56.1527 2.64107L54.909 4.92875L55.206 8.46257C55.373 10.3969 55.503 12.3312 55.503 12.7218C55.503 14.5073 55.8371 12.7218 56.6353 6.82586C57.1179 3.32924 57.4706 0.446386 57.4521 0.409188C57.4335 0.37199 56.8395 1.37634 56.1527 2.64107Z" fill="black"/>
<path d="M7.61077 6.19349C7.61077 6.36088 7.53652 7.30943 7.42515 8.31378C7.33233 9.31813 7.16527 11.1036 7.05389 12.2754L6.8497 14.4329L8.07485 17.7621C8.74311 19.6034 10.0054 23.0256 10.8593 25.3877C12.4 29.5725 12.5671 30.2234 12.2515 30.9674C12.1401 31.265 12.0844 31.2836 11.9916 31.0604C11.9359 30.9116 10.8407 27.8986 9.55988 24.3647C8.27904 20.8309 7.10958 17.6505 6.97964 17.2971L6.71976 16.6647L6.60838 17.5761C6.55269 18.0969 6.40419 19.6406 6.29281 21.0169L6.08862 23.5278L7.85209 28.3635C8.81736 31.0232 10.0054 34.2408 10.4695 35.5056C11.1006 37.2167 11.3233 38.0908 11.3233 38.8534C11.3233 39.4486 11.2491 39.8019 11.1563 39.6904C11.0078 39.5416 9.39281 35.1708 6.9982 28.4937C6.47844 27.043 5.9958 25.8527 5.90299 25.8527C5.82874 25.8527 5.75449 26.1689 5.75449 26.5408C5.75449 26.9314 5.51317 29.9631 5.21616 33.2923C4.9006 36.6215 4.60359 40.0065 4.5479 40.8249L4.43652 42.3128L9.02155 47.0184C13.588 51.7053 13.6066 51.7239 16.0383 53.1747C17.3748 53.9558 18.7114 54.7742 19.0269 54.9788C19.4168 55.2205 19.5281 55.2577 19.3982 55.0532C19.194 54.7184 17.579 52.4121 16.9108 51.5193C16.5395 51.0172 16.7251 51.1288 17.8018 52.0587C21.3102 55.0532 24.7443 56.5783 29.1251 57.0991C34.3599 57.6942 40.1329 55.8343 44.2724 52.2261C45.2006 51.4263 45.2006 51.4263 44.718 52.0773C42.6575 54.9044 42.1934 55.7041 43.0473 54.9974C43.2144 54.8672 44.3838 54.1418 45.6647 53.3792C47.9108 52.0587 48.1335 51.8727 52.7742 47.2602L57.582 42.4988L57.4707 41.0109C57.2293 37.4399 56.1527 25.8527 56.0599 25.8527C56.0042 25.8527 54.8533 28.9587 53.4796 32.7343C52.106 36.5285 50.9736 39.616 50.9365 39.616C50.8994 39.616 50.9365 39.0022 50.9736 38.2582C51.0665 37.1423 51.4748 35.8032 53.4982 30.2234L55.9299 23.5278L55.7072 20.8309C55.3359 16.1068 55.4659 16.1626 53.9808 20.1986C49.7485 31.823 50.0826 31.0232 49.8042 30.3722C49.5629 29.7399 49.6371 29.4795 52.2545 22.4118C52.5886 21.4819 53.3868 19.3244 54.018 17.5947L55.1689 14.4329L54.9461 12.108C54.8347 10.8061 54.6491 9.00195 54.5563 8.05339C54.4635 7.10484 54.3892 6.23069 54.3892 6.1005C54.3707 5.85871 53.9808 6.93745 49.5257 19.064C48.3006 22.4305 47.2425 25.2389 47.2054 25.2761C47.1683 25.3319 46.8713 25.0343 46.5557 24.6251C46.2401 24.2346 45.5904 23.5278 45.1078 23.0628C44.421 22.3933 44.1982 21.9841 43.9198 21.0169C42.676 16.4416 38.982 12.8148 34.3413 11.5872C32.7078 11.1594 29.4593 11.1594 27.8443 11.5872C23.2778 12.8148 19.6024 16.3858 18.2844 20.9425C17.9503 22.1143 17.7461 22.4305 16.391 23.8998C14.9245 25.4807 14.8503 25.5365 14.7018 25.0901C14.609 24.8483 13.9778 23.1372 13.3096 21.2959C12.6413 19.4546 11.3605 15.9766 10.488 13.5773C9.597 11.178 8.63173 8.49977 8.31616 7.62562C7.72215 5.93311 7.61077 5.70992 7.61077 6.19349ZM34.6198 12.9077C36.7916 13.6703 37.9425 14.3957 39.5575 15.9952C40.8198 17.2599 41.321 17.8923 41.9335 19.1384C42.3605 19.994 42.6575 20.7379 42.6204 20.7937C42.4533 20.9611 41.7479 20.3102 41.191 19.4732C40.3371 18.1713 38.2952 16.3486 36.8102 15.5674C31.4826 12.7775 24.7072 14.2655 21.2916 19.0082C20.3449 20.3102 19.6581 21.0541 19.5281 20.9425C19.491 20.8867 19.8066 20.1242 20.2335 19.2314C21.3287 16.9437 23.3892 14.8792 25.6539 13.7633C26.5263 13.3355 27.6958 12.8519 28.2527 12.7218C29.6263 12.3684 33.3946 12.48 34.6198 12.9077ZM34.397 15.6976C36.179 16.2742 38.3138 17.5575 39.3533 18.7106C39.7617 19.157 39.7617 19.1942 39.4461 19.0826C39.2419 18.9896 38.5551 18.7292 37.9054 18.4875C36.8102 18.0597 36.7545 18.0597 36.9401 18.3945C37.0329 18.599 37.2186 18.8222 37.3114 18.878C37.4227 18.9524 37.7198 19.3244 37.9611 19.7336C38.2581 20.1986 38.7593 20.6263 39.409 20.9425C39.9287 21.2215 40.7084 21.6679 41.1353 21.9655C42.2305 22.7094 42.6018 23.9556 42.6018 26.8012V28.9587L43.0287 28.6797C43.7341 28.2148 44.1982 27.3964 44.3096 26.392C44.421 25.4435 44.421 25.4435 44.6808 25.9271C44.8293 26.2247 44.8665 26.5222 44.7736 26.7268C44.6808 26.9128 44.4581 27.3964 44.2539 27.8056C43.7713 28.8285 42.2677 29.5911 40.4856 29.7213C36.8102 29.9817 32.3736 27.6568 31.4455 24.9599C31.2599 24.4391 31.0371 23.9928 30.9443 23.9928C30.8701 23.9928 30.6659 24.309 30.5174 24.6809C29.7377 26.6524 28.9581 27.508 27.0832 28.4565C24.7443 29.6655 21.6443 30.0375 19.8251 29.3307C18.9713 28.9959 17.8204 27.9358 17.8204 27.4708C17.8204 27.3406 17.709 27.0244 17.579 26.764C17.3934 26.4292 17.3748 26.1689 17.5048 25.8341C17.6533 25.4249 17.709 25.4993 17.8946 26.4664C18.0617 27.2476 18.303 27.7126 18.7485 28.1776C19.1012 28.5309 19.4168 28.8285 19.4725 28.8285C19.5467 28.8285 19.5838 27.8428 19.5838 26.6338C19.5838 23.0628 19.9736 22.3747 22.7952 20.9425C23.315 20.6821 23.7605 20.3846 23.7605 20.3102C23.7605 20.2358 24.0946 19.7336 24.503 19.1942C24.9114 18.6734 25.1713 18.2271 25.0784 18.2271C25.0042 18.2271 24.3174 18.4689 23.5563 18.785L22.1826 19.343L23.3521 18.2457C24.6701 16.9995 26.6934 15.9208 28.4383 15.5302C29.8677 15.1954 33.1162 15.2884 34.397 15.6976ZM16.6323 30.9302C16.6323 34.1664 16.9665 36.3053 17.9317 39.3184C18.5443 41.2527 18.9156 41.9594 20.0293 43.2986C21.6443 45.2515 24.7257 46.9812 27.7515 47.6321C29.2365 47.9483 33.0233 47.9483 34.5269 47.6321C38.1281 46.851 41.0054 45.0283 42.8988 42.35C43.9754 40.8063 44.3467 39.8577 45.0335 36.9191C45.4976 34.929 45.5533 34.3152 45.5533 31.3022C45.5719 27.7684 45.6461 27.6568 46.1473 30.1676C46.5557 32.1577 46.4257 35.4126 45.8689 37.3469C44.5695 41.8664 41.1353 45.642 36.7359 47.3904C34.7497 48.1901 33.4132 48.4319 31.0928 48.4319C27.8072 48.4319 25.2826 47.6693 22.5353 45.828C19.5096 43.8193 17.1892 40.6017 16.2239 37.1051C15.8156 35.6172 15.6671 31.9346 15.9455 30.4466C16.1311 29.4795 16.5395 27.8986 16.5952 27.8986C16.6138 27.8986 16.6138 29.2563 16.6323 30.9302ZM15.0359 31.2464C14.9431 31.7858 14.8503 32.9575 14.8503 33.8503C14.8503 40.0995 18.4329 45.8094 24.0389 48.4691C26.4707 49.6222 27.5473 49.8826 30.5359 49.9756C32.7449 50.05 33.376 50.0128 34.8054 49.678C40.5413 48.3017 45.182 43.8007 46.8156 38.035C47.1497 36.8075 47.2239 36.0635 47.2425 33.7759C47.2425 32.2507 47.2982 31.2464 47.3539 31.544C47.4281 31.8416 47.4838 32.9947 47.5024 34.1292C47.521 37.3469 46.7599 40.1739 45.2006 42.6848C44.6994 43.4846 43.697 46.6464 43.9012 46.8324C44.0311 46.9812 45.7575 44.5261 46.5 43.094C47.3539 41.4759 47.818 40.1553 48.1707 38.5L48.3934 37.4771L48.709 39.2812L49.0431 41.0853L48.5605 42.6104C46.6485 48.5435 42.2862 52.9143 36.476 54.737C35.6593 54.9974 34.5826 55.2577 34.0629 55.3321C33.5617 55.3879 32.8934 55.4995 32.5778 55.5367C32.188 55.6111 32.4293 55.4065 33.4132 54.8672C35.3994 53.7512 37.0886 52.4121 38.3138 50.9986C39.3904 49.7152 41.0425 47.3718 40.9311 47.2788C40.894 47.2416 40.4671 47.5205 39.9659 47.8739C35.2695 51.259 28.2156 51.4263 22.9251 48.3017C22.3126 47.9483 21.7928 47.6693 21.7557 47.7065C21.5886 47.8553 23.6677 50.515 24.9485 51.7983C26.5263 53.3606 28.1413 54.4208 29.9419 55.0904C30.5174 55.2949 30.9629 55.5181 30.9257 55.5739C30.7216 55.7599 27.1946 55.202 25.7653 54.7556C19.8808 52.8957 15.5186 48.5249 13.6623 42.629C13.1239 40.9179 13.0868 40.3041 13.4395 38.407C13.6437 37.2725 13.6994 37.1795 13.8108 37.6631C14.5533 40.8621 15.0174 42.1268 16.1683 44.0611C16.9479 45.3631 18.3587 47.13 18.5072 46.9998C18.5443 46.944 18.4515 46.3302 18.2844 45.6048C18.0802 44.6935 17.7275 43.8937 17.1521 43.0196C15.3515 40.2669 14.5719 37.1609 14.7204 33.4039C14.776 32.0648 14.8874 30.7814 14.9431 30.5396C15.1844 29.7957 15.2216 30.2234 15.0359 31.2464ZM47.094 30.5396C47.0383 30.6884 46.9826 30.6326 46.9826 30.428C46.9641 30.2234 47.0198 30.1119 47.0754 30.1862C47.1311 30.242 47.1497 30.4094 47.094 30.5396Z" fill="black"/>
<path d="M28.4569 18.3945C25.4497 19.5104 23.4078 22.2445 23.2407 25.3877C23.185 26.4478 23.2593 27.229 23.4635 27.9544C23.8162 29.1447 23.9275 29.2749 24.5587 29.0331C24.9856 28.8657 25.0042 28.8099 24.8371 27.9544C24.4473 25.8899 25.5796 23.193 27.3617 21.9469C28.6611 21.0541 29.6635 20.7751 31.3341 20.8681C32.9491 20.9425 33.9886 21.3517 35.2323 22.4118C36.6802 23.6766 37.6269 26.4664 37.1443 28.1775C37.0329 28.5681 36.9772 28.9215 37.0144 28.9587C37.0329 28.9773 37.3114 29.0703 37.6269 29.1261C38.1838 29.2377 38.2024 29.2005 38.518 28.2891C38.7407 27.5638 38.815 26.857 38.7593 25.5179C38.7036 23.8998 38.6293 23.565 38.091 22.449C37.2928 20.8495 35.9934 19.5476 34.397 18.7478C33.2832 18.2085 32.9862 18.1341 31.297 18.0969C29.8305 18.0597 29.218 18.1341 28.4569 18.3945Z" fill="black"/>
<path d="M4.15808 12.8333C4.28802 13.5959 4.88203 18.0597 5.23473 20.6821C5.3461 21.6679 5.51317 22.449 5.56886 22.4118C5.64311 22.3746 5.79161 20.8681 5.94012 19.0826L6.18143 15.8464L5.38323 14.3957C4.93772 13.5773 4.45509 12.7589 4.32515 12.5544C4.08383 12.2196 4.06526 12.2382 4.15808 12.8333Z" fill="black"/>
<path d="M56.8209 14.0981L55.8185 15.9022L56.0413 18.692C56.394 23.007 56.4497 23.1558 56.8209 20.4589C56.988 19.1756 57.3036 16.8507 57.5263 15.2698C57.7491 13.6889 57.8976 12.387 57.879 12.3498C57.8419 12.3312 57.3778 13.1123 56.8209 14.0981Z" fill="black"/>
<path d="M0.259871 16.2742C0.371248 16.9251 1.8934 28.2333 3.24849 38.2954C3.50837 40.1739 3.74969 41.7548 3.78682 41.792C3.89819 41.9036 4.00957 40.6017 4.64071 33.0133C4.93772 29.3307 5.23472 26.0015 5.29041 25.6109C5.38322 24.9785 5.16047 24.4763 2.85867 20.3102C1.46646 17.7807 0.278434 15.679 0.222745 15.6232C0.185619 15.5674 0.204182 15.865 0.259871 16.2742Z" fill="black"/>
<path d="M59.2156 20.2358C57.1736 23.9742 56.7096 24.9413 56.7467 25.4807C56.821 26.3362 57.4892 34.2408 57.8233 38.221C57.9719 39.9507 58.1018 41.4945 58.1018 41.6432C58.1018 41.792 58.1389 41.8664 58.1946 41.8106C58.2874 41.7176 59.0299 36.3983 60.7377 23.8068C61.2575 19.8638 61.7587 16.6089 61.8515 16.5903C62.0371 16.516 62.0557 15.6232 61.8701 15.6232C61.7772 15.6418 60.5892 17.7063 59.2156 20.2358Z" fill="black"/>
<path d="M7.36945 47.6693C7.4437 47.8181 9.0958 50.4034 11.0078 53.435L14.4976 58.9403L16.1126 59.8517C17.0778 60.4097 18.2473 60.8932 19.0269 61.0606C19.7509 61.228 21.403 61.6186 22.7209 61.9348C24.0389 62.251 25.1341 62.4742 25.1712 62.437C25.1898 62.4184 22.0898 59.7587 18.2473 56.5411C14.4048 53.3234 10.3952 49.957 9.35568 49.0457C7.48083 47.4647 7.07244 47.1858 7.36945 47.6693Z" fill="black"/>
<path d="M49.6557 51.6309C46.8898 53.9372 42.8802 57.3036 40.7084 59.1077C38.5551 60.9304 36.8102 62.4184 36.8473 62.4556C36.8659 62.4928 38.5551 62.1208 40.5784 61.6372C43.5485 60.949 44.5323 60.6329 45.6275 60.0377C46.37 59.6285 47.1868 59.1077 47.4281 58.8846C47.6694 58.68 49.3587 56.1133 51.1778 53.1932C55.0203 47.0742 54.7976 47.4275 54.7233 47.4275C54.6862 47.4275 52.403 49.3246 49.6557 51.6309Z" fill="black"/>
<path d="M13.7551 52.3935C13.7551 52.4865 15.7599 54.2162 18.2102 56.2621L22.6838 59.9819L26.2293 60.856C28.197 61.321 29.812 61.693 29.8305 61.6744C29.8862 61.6186 13.9778 52.2633 13.8293 52.2633C13.7736 52.2633 13.7365 52.3191 13.7551 52.3935Z" fill="black"/>
<path d="M40.0587 56.9874C35.715 59.5541 32.1695 61.6744 32.188 61.693C32.2066 61.7116 33.8215 61.3396 35.7706 60.8746L39.3162 60.0191L43.8084 56.2435C49.006 51.8727 48.579 52.2633 48.2449 52.2819C48.0964 52.3005 44.4209 54.4022 40.0587 56.9874Z" fill="black"/>
<path d="M26.6377 63.0321C26.4706 63.3297 26.6934 63.6087 27.1203 63.6087C27.3802 63.6087 27.473 63.4971 27.4359 63.2925C27.3617 62.9205 26.8233 62.7531 26.6377 63.0321Z" fill="black"/>
<path d="M34.7683 63.1623C34.6198 63.5715 35.1024 63.8505 35.4365 63.5343C35.5665 63.3855 35.6221 63.1809 35.5665 63.0693C35.3808 62.7717 34.8982 62.8275 34.7683 63.1623Z" fill="black"/>
<path d="M29.3665 63.9249C29.4407 64.3341 30.1647 64.3898 30.1647 63.9807C30.1647 63.8319 29.9605 63.6831 29.7377 63.6459C29.385 63.5901 29.3108 63.6459 29.3665 63.9249Z" fill="black"/>
<path d="M32.1138 63.9807C32.1138 64.2225 32.2437 64.3527 32.4479 64.3527C32.8934 64.3527 33.0419 64.2039 32.912 63.8691C32.7635 63.4599 32.1138 63.5529 32.1138 63.9807Z" fill="black"/>
<path d="M6.18144 66.3056C5.38323 66.6403 4.93772 67.5331 5.06767 68.5746C5.10479 69.021 5.30898 69.5604 5.47605 69.7464C5.90299 70.2113 5.77305 70.2113 3.78683 69.858C-1.96766 68.8164 0.482635 69.5046 16.2796 73.3546L31.0928 76.9628L36.6617 75.6051C61.1461 69.6534 62.0557 69.4116 61.2389 69.393C61.0904 69.3744 60.0509 69.5418 58.9371 69.7464C57.8233 69.951 56.8581 70.1184 56.7838 70.1184C56.7096 70.1184 56.7653 69.8766 56.9138 69.579C57.2665 68.8536 57.0066 68.1283 56.3012 67.9609C55.1874 67.7191 54.8533 67.5703 54.7976 67.2541C54.6305 66.4543 56.1713 65.9894 56.3754 66.7705C56.5054 67.2913 56.8024 67.2355 56.8024 66.6961C56.8024 65.8778 55.2245 65.729 54.482 66.4915C53.6838 67.2727 53.9808 68.3142 55.0946 68.556C56.2455 68.8164 56.2641 68.8164 56.2084 69.4302C56.1527 69.9882 56.1156 70.0254 55.4102 70.0254C54.8162 70.0254 54.6305 69.9324 54.482 69.5976C54.3892 69.3744 54.2407 69.1884 54.1665 69.1884C53.9251 69.1884 53.9994 70.2671 54.2593 70.3601C54.3707 70.3973 54.4449 70.4717 54.3892 70.5275C54.3335 70.5647 49.0802 71.5505 42.6946 72.685L31.1114 74.7867L19.5281 72.685C9.76407 70.9181 8.01916 70.5461 8.2976 70.3601C9.09581 69.7836 9.4485 69.3186 9.55988 68.649C9.87545 66.7147 8.09341 65.4686 6.18144 66.3056ZM8.1491 66.7519C8.83593 67.4401 8.87305 69.0582 8.22335 69.7836C7.81497 70.2299 6.83114 70.2113 6.40419 69.7464C6.2 69.5232 6.03293 68.9838 5.97725 68.3886C5.92156 67.6075 5.97725 67.3285 6.31138 66.9007C6.79401 66.287 7.62934 66.2312 8.1491 66.7519Z" fill="black"/>
<path d="M20.8461 66.3055C19.5281 66.8635 19.2868 68.9652 20.4006 69.9696C20.8647 70.3787 21.1617 70.4903 21.8671 70.4903C23.185 70.4903 24.0204 69.8394 24.2245 68.6118C24.5587 66.7147 22.7395 65.4686 20.8461 66.3055ZM22.6467 66.5845C23.3892 66.9751 23.5192 69.0396 22.8695 69.7836C22.4796 70.2485 21.4958 70.2113 21.0689 69.7464C20.8647 69.5232 20.6976 68.9838 20.6419 68.3886C20.5862 67.6075 20.6419 67.3285 20.976 66.9007C21.403 66.3799 22.0156 66.2497 22.6467 66.5845Z" fill="black"/>
<path d="M36.1419 66.6217C36.012 66.9565 35.6593 67.8493 35.3808 68.5932C35.0838 69.3558 34.7311 70.0068 34.6012 70.0625C34.1186 70.2485 34.3413 70.4903 34.991 70.4903C35.6036 70.4903 35.882 70.2299 35.4365 70.0811C35.3066 70.0439 35.2695 69.8394 35.3437 69.5976C35.4551 69.2628 35.6221 69.1884 36.2719 69.1884C36.9401 69.1884 37.1072 69.2628 37.2742 69.6534C37.4599 70.0439 37.4413 70.1183 37.2186 70.1183C37.0701 70.1183 36.9401 70.1927 36.9401 70.3043C36.9401 70.3973 37.3671 70.4903 37.8683 70.4903C38.7036 70.4903 39.112 70.2485 38.5922 70.0811C38.4808 70.0439 38.0353 69.1512 37.6084 68.0725C37.1629 67.0123 36.7174 66.101 36.606 66.0638C36.4946 66.0266 36.2904 66.2869 36.1419 66.6217ZM36.9401 68.6676C36.9401 68.7606 36.6988 68.8164 36.3832 68.8164C35.7521 68.8164 35.7335 68.7606 36.0305 67.8865L36.2533 67.2727L36.5874 67.9051C36.773 68.2584 36.9216 68.5932 36.9401 68.6676Z" fill="black"/>
<path d="M50.8066 66.6217C50.6766 66.9565 50.3054 67.8493 50.0269 68.6118C49.7299 69.3558 49.3772 70.0068 49.2473 70.0625C48.7832 70.2485 49.006 70.4903 49.6557 70.4903C50.2683 70.4903 50.5467 70.2299 50.1012 70.0811C49.9713 70.0439 49.9341 69.8394 50.0084 69.5976C50.1198 69.2628 50.2868 69.1884 50.9551 69.1884C51.6234 69.1884 51.7904 69.2628 51.9018 69.5976C51.976 69.8394 51.9389 70.0439 51.809 70.0811C51.2892 70.2485 51.6976 70.4903 52.5329 70.4903C53.3683 70.4903 53.7766 70.2485 53.2569 70.0811C53.1455 70.0439 52.7 69.1326 52.2545 68.0725C51.809 67.0123 51.3635 66.101 51.2521 66.0638C51.1593 66.0266 50.9551 66.2869 50.8066 66.6217ZM51.1222 68.7792C50.4725 68.8722 50.4168 68.7606 50.6952 67.9423L50.918 67.2355L51.2521 67.9795L51.5862 68.7234L51.1222 68.7792Z" fill="black"/>
<path d="M10.2652 66.3427C10.5437 66.4171 10.5808 66.6589 10.5808 68.2026C10.5808 69.6906 10.5251 70.0254 10.2652 70.2299C9.96824 70.4531 10.0611 70.4717 10.9149 70.4903C11.4347 70.4903 11.8802 70.3973 11.8802 70.3043C11.8802 70.1927 11.806 70.1183 11.6946 70.1183C11.4533 70.1183 11.4533 66.6403 11.6946 66.4915C11.9916 66.3055 12.6227 66.7519 12.6227 67.1425C12.6227 67.7377 12.4185 68.0725 12.0473 68.0725C11.8617 68.0725 11.6946 68.1096 11.6946 68.1468C11.6946 68.184 11.9916 68.6676 12.3443 69.207C12.697 69.765 12.994 70.2671 12.994 70.3415C12.994 70.4345 13.2539 70.4903 13.5509 70.4903C13.8664 70.4903 14.1078 70.4531 14.1078 70.3973C14.1078 70.3601 13.7736 69.8394 13.3652 69.2628L12.6413 68.2026L13.0868 67.8493C13.588 67.4587 13.6994 66.8077 13.3281 66.4357C13.1796 66.2869 12.5299 66.2125 11.5275 66.2311C10.6365 66.2497 10.0796 66.2869 10.2652 66.3427Z" fill="black"/>
<path d="M14.7204 66.4171C14.9802 66.5659 15.0359 66.8821 15.0359 68.3142C15.0359 69.4488 14.9617 70.137 14.8132 70.2857C14.4419 70.6577 17.1892 70.4531 17.9689 70.044C19.1198 69.4488 19.4725 67.7749 18.6371 66.7891C18.1545 66.2126 18.1545 66.2126 16.2796 66.2126C14.906 66.2312 14.479 66.2684 14.7204 66.4171ZM17.8204 67.0867C18.1359 67.4959 18.2102 67.7749 18.1359 68.4072C18.0431 69.3372 17.6347 69.8394 16.8922 70.0068C15.8713 70.2113 15.7784 70.0626 15.7784 68.2399V66.5845H16.5952C17.282 66.5845 17.4862 66.6775 17.8204 67.0867Z" fill="black"/>
<path d="M26.5078 66.3241C26.7862 66.4543 26.8233 70.1183 26.5449 70.1183C26.4521 70.1183 26.3593 70.1927 26.3593 70.3043C26.3593 70.3973 26.7862 70.4903 27.2874 70.4903C27.8072 70.4903 28.2156 70.3973 28.2156 70.3043C28.2156 70.1927 28.0856 70.1183 27.9371 70.1183C27.6958 70.1183 27.6587 69.8394 27.6958 68.3142C27.7329 67.2169 27.8257 66.4915 27.9557 66.4543C28.0671 66.4171 28.3641 66.5473 28.6054 66.7333C28.9952 67.0495 29.0138 67.1611 28.8096 67.5889C28.6982 67.8493 28.4754 68.0725 28.3084 68.0725C27.9371 68.0725 27.9557 68.3514 28.3826 68.9652C28.5683 69.2442 28.8653 69.6906 29.0323 69.9696C29.2551 70.3415 29.4964 70.4903 29.8862 70.4903H30.4245L29.6635 69.3744L28.8838 68.2584L29.3108 67.8679C29.6078 67.5889 29.7006 67.3099 29.6635 66.9007L29.6078 66.3055L27.9371 66.2683C27.0275 66.2497 26.3778 66.2869 26.5078 66.3241Z" fill="black"/>
<path d="M30.8701 66.3427C31.1856 66.4171 31.2042 66.6217 31.1485 68.463L31.0928 70.4903H32.5407H33.9701V69.8952V69.3L33.5988 69.7092C33.376 69.951 32.9862 70.1183 32.6707 70.1183C32.1323 70.1183 32.1138 70.0811 32.1138 69.2814C32.1138 68.4816 32.1323 68.4444 32.6521 68.4444C33.0233 68.4444 33.2275 68.556 33.2832 68.7606C33.3389 68.9466 33.376 68.7234 33.3946 68.2584C33.3946 67.6075 33.3575 67.4959 33.209 67.7377C33.1162 67.9237 32.8192 68.0725 32.5778 68.0725C32.1695 68.0725 32.1138 67.9981 32.1138 67.3285C32.1138 66.6217 32.1323 66.5845 32.6892 66.5845C33.0419 66.5845 33.376 66.7147 33.5245 66.9007C33.7473 67.1983 33.7659 67.1797 33.7844 66.7147V66.2125L32.1695 66.2311C31.2599 66.2497 30.6844 66.2869 30.8701 66.3427Z" fill="black"/>
<path d="M39.409 66.3428C39.7245 66.4172 39.7431 66.6217 39.6874 68.463L39.6317 70.5089L41.0239 70.4531L42.4162 70.3973L42.4718 69.8394L42.5461 69.2814L42.1377 69.6906C41.915 69.951 41.5251 70.1184 41.2096 70.1184H40.6527V68.2771C40.6527 66.9751 40.7269 66.3986 40.894 66.3428C41.0054 66.287 40.6527 66.2498 40.0958 66.2498C39.5389 66.2498 39.2233 66.287 39.409 66.3428Z" fill="black"/>
<path d="M43.3257 66.5101C43.7341 66.9193 43.7527 69.5976 43.3443 70.0068C42.9174 70.4345 42.9916 70.4903 43.994 70.4903C44.5138 70.4903 44.9221 70.3973 44.9221 70.3043C44.9221 70.1927 44.7922 70.1183 44.6437 70.1183C44.4209 70.1183 44.3653 69.8022 44.3653 68.3514C44.3653 66.8821 44.4209 66.5659 44.6994 66.4171C44.9407 66.2683 44.7922 66.2311 44.0311 66.2125C43.1215 66.2125 43.0659 66.2311 43.3257 66.5101Z" fill="black"/>
<path d="M45.2934 66.6775C45.2934 66.9379 45.3862 67.1425 45.479 67.1425C45.5904 67.1425 45.6647 67.0123 45.6647 66.8635C45.6647 66.6775 45.8503 66.5845 46.2215 66.5845H46.7784V68.277C46.7784 69.6906 46.7227 70.0254 46.4629 70.2299C46.1659 70.4531 46.2587 70.4717 47.1126 70.4903C47.6323 70.4903 48.0778 70.3973 48.0778 70.3043C48.0778 70.1927 48.0036 70.1183 47.8922 70.1183C47.7808 70.1183 47.7066 69.4116 47.7066 68.3514V66.5845H48.2635C48.6347 66.5845 48.8203 66.6775 48.8203 66.8635C48.8203 67.0123 48.9132 67.1425 49.006 67.1425C49.1173 67.1425 49.1916 66.9379 49.1916 66.6775V66.2125H47.2425H45.2934V66.6775Z" fill="black"/>
</g>
<defs>
<clipPath id="clip0_22_51">
<rect width="62" height="77" fill="white"/>
</clipPath>
</defs>
</svg>
