<svg xmlns="http://www.w3.org/2000/svg" xml:space="preserve" width="2048" height="2048"
    style="shape-rendering:geometricPrecision;text-rendering:geometricPrecision;image-rendering:optimizeQuality;fill-rule:evenodd;clip-rule:evenodd">
    <path
        d="M1155.52 1003.17c48.135-63.757 110.979-102.513 178.937-114.572 67.83-12.037 140.091 2.733 207.199 45.998a368.603 368.603 0 0 1 22.356 15.606l22.976 17.35-14.85 24.65c-8.71 14.457-18.211 28.042-28.415 40.727-45.81 56.95-103.433 91.59-165.617 102.627-62.115 11.025-128.087-1.666-190.666-39.364-13.563-8.17-27.131-17.675-40.629-28.534l-22.411-18.029 15.536-24.097c5.09-7.895 10.29-15.35 15.583-22.363zm473.044 198.525c103.661-126.649 163.442-310.396 163.442-476.659v-40.011l-39.001 8.885c-89.925 20.487-187.436 21.905-283.493 23.3-162.275 2.357-320.614 4.675-445.507 94.018-124.893-89.343-283.232-91.66-445.507-94.018-96.057-1.395-193.57-2.813-283.493-23.3l-39.001-8.885v40.011c0 166.263 59.781 350.011 163.442 476.659 39.267 47.976 84.978 88.013 136.343 116.229 52.227 28.688 109.974 45.041 172.386 45.041 90.497 0 190.109-34.353 295.83-115.506 105.722 81.152 205.333 115.506 295.832 115.506 62.412 0 120.158-16.353 172.386-45.041 51.365-28.214 97.076-68.254 136.343-116.229zM713.55 888.599c67.958 12.06 130.802 50.815 178.937 114.572 5.294 7.012 10.494 14.467 15.583 22.363l15.537 24.097-22.412 18.028c-13.497 10.86-27.066 20.365-40.629 28.535-62.578 37.698-128.55 50.389-190.666 39.363-62.183-11.036-119.808-45.678-165.617-102.627-10.203-12.685-19.705-26.27-28.415-40.726l-14.85-24.651 22.976-17.35a368.593 368.593 0 0 1 22.356-15.605c67.108-43.265 139.368-58.035 207.2-45.998z"
        style="fill:#000000" />
    <path style="fill:none" d="M0 0h2048v2048H0z" />
</svg>